PathFileType	4	(X/Y/Z)	4_1_8_p0_0-239_filt_butterworth.trc
DataRate	CameraRate	NumFrames	NumMarkers	Units	OrigDataRate	OrigDataStartFrame	OrigNumFrames
60.0	60.0	7	27	m	60.0	149	239
Frame#	Time	RHip			RKnee			RAnkle			RBigToe			RSmallToe			RHeel			LHip			LKnee			LAnkle			LBigToe			LSmallToe			LHeel			Neck			Head			Nose			RShoulder			RElbow			RWrist			RThumb			RIndex			RPinky			LShoulder			LElbow			LWrist			LThumb			LIndex			LPinky			
		X1	Y1	Z1	X2	Y2	Z2	X3	Y3	Z3	X4	Y4	Z4	X5	Y5	Z5	X6	Y6	Z6	X7	Y7	Z7	X8	Y8	Z8	X9	Y9	Z9	X10	Y10	Z10	X11	Y11	Z11	X12	Y12	Z12	X13	Y13	Z13	X14	Y14	Z14	X15	Y15	Z15	X16	Y16	Z16	X17	Y17	Z17	X18	Y18	Z18	X19	Y19	Z19	X20	Y20	Z20	X21	Y21	Z21	X22	Y22	Z22	X23	Y23	Z23	X24	Y24	Z24	X25	Y25	Z25	X26	Y26	Z26	X27	Y27	Z27	
149	2.4833333333333334	0.3664832025152019	0.43012026667081726	0.6548287142494928	0.3826878746177491	0.43398277990844103	1.1365352414612617	0.36182474363054895	0.512490881535747	1.5814214683093781	0.3538000999474796	0.2694893091951304	1.5824398830627864	0.41900556128616673	0.34704084265854046	1.6247202098133107	0.353726920453346	0.5242884691012977	1.6238413206029727	0.15988542156625973	0.4380151947817935	0.6630034098530276	0.18769140602990478	0.4483720772608945	1.1277492832741873	0.1987921370858732	0.4545657412499759	1.5455338227655182	0.1864353373532584	0.2874479605782219	1.6159581495227224	0.1406602853260959	0.3029290877109936	1.579580049024269	0.21155279903737612	0.5277067756080596	1.6386553017221401	0.20427777819499982	0.3515871741041051	0.21208005422474324	0.18125010782866313	0.22753647023034812	-0.05979979389150333	0.1769093600945022	0.18407285191394177	0.10046607443959721	0.38460579748013407	0.3148197620248493	0.23501694374262364	0.4657870443783555	0.3722143388629696	0.5271314648150954	0.4506779721851013	0.33998651343296526	0.7918133542693672	0.4111627704192833	0.3256317736892252	0.8937266840597082	0.42424166874438524	0.32736265602141346	0.9067935118052429	0.468243726740789	0.35833072170632485	0.9128177930324265	0.04866975968515836	0.39672573674547285	0.2531873983498411	0.03203894438669492	0.4148091265955317	0.566607798660046	0.04927306610043131	0.3869094229562268	0.811575701099612	0.11797986720554826	0.316121257784294	0.8719967407020031	0.1108001331501039	0.30394968670893047	0.9142224882081578	0.04669927054263616	0.3987290165415615	0.9595665685368863
150	2.5	0.367362177788064	0.4303758545191782	0.6534179362665004	0.3823008432714015	0.434128911728744	1.1361065133467676	0.36181605529285155	0.5125162112543541	1.581344189741714	0.3537906550321349	0.26956500048774046	1.5824783251131016	0.419112210359207	0.34736442333657225	1.624929968889757	0.35381074219948017	0.5248324564054456	1.6238648396058872	0.15990640046717117	0.4380758993856956	0.6630644362731631	0.18755632582506726	0.4480554233960692	1.1264162439391172	0.1987480331287623	0.45453169156351536	1.5444916102289263	0.18644892114754763	0.28751720099325473	1.6160264204288264	0.14059098703438508	0.3029678534777365	1.5807830245350427	0.21157474815226152	0.5276320656778634	1.638544452862773	0.2043869172359186	0.35155131715038795	0.21206624548935749	0.18126282204606614	0.22754171491728029	-0.059812271519547065	0.1760106796393886	0.18389589979606177	0.1005099306068464	0.383790218279312	0.31476483452571574	0.23561866517206098	0.46571086325856204	0.37373356932125923	0.5290096311608514	0.4507888904538424	0.3400575278637703	0.7907893145769851	0.4103909738643728	0.3266343172945172	0.8942385771294621	0.42372958446119835	0.32623413672300755	0.905946737198819	0.4682201104515986	0.358299761875621	0.9128205828547936	0.048677097224560116	0.3967532229431021	0.25319075833184357	0.032055819455086274	0.4147785754199545	0.5665099736361983	0.05007530576299425	0.3901251657537711	0.8134783138261037	0.11909683647618433	0.319156749933754	0.8725803796921335	0.11079293171915852	0.30413981438301546	0.9148497123873002	0.04659295207001013	0.3986081706678849	0.9588286358589996
151	2.5166666666666666	0.36873574303984913	0.4309099690515804	0.6523256255498575	0.38189861884089626	0.4342338062698309	1.1354659425611238	0.3617819646363571	0.5125414886631819	1.5813644721132336	0.3537689204866913	0.26962461656969683	1.5825158253049358	0.4191188790824977	0.3473923492655265	1.6249510868792916	0.35409181436498655	0.5256029646353338	1.624863753482581	0.15992471690998394	0.4385199632570487	0.6631049096182534	0.18737570232188724	0.4476514327028411	1.1246826237532823	0.1987886555695505	0.4545344417033684	1.5428532067522367	0.18645853193397	0.2875633774912656	1.6160822253613214	0.1404218745807913	0.3029761313068492	1.5829063759618165	0.2116131135686184	0.5276183868927182	1.6384743910311022	0.20450153080583508	0.35152122964348437	0.21203621261564726	0.18120887127041746	0.22748958320772883	-0.05979243702754365	0.17479076403753158	0.18348122645338727	0.10057587161792743	0.3833429668184558	0.3177473772113606	0.23582172503612958	0.4651432847051293	0.3773337089078052	0.5316130907804475	0.4509204847263456	0.3402044944552471	0.7903065920902529	0.41003878298202434	0.32391849958297975	0.8930157712005762	0.42252945359498956	0.323413382690731	0.9038457413767902	0.46801525944563643	0.358429575290633	0.9128606941880932	0.04867476119437317	0.3967630543167685	0.2532049739241456	0.03205843250453584	0.41481686792758543	0.5663514463392778	0.05069056098300285	0.3916049165448721	0.8141671324960619	0.11978903867021092	0.32092524836883957	0.8741155349535732	0.11085378144541995	0.3058435708263493	0.9170208879825463	0.04658463430379434	0.39882596125296277	0.958960699687949
152	2.533333333333333	0.36977409686758744	0.43131535415310274	0.6519644889965432	0.3816965738575273	0.4341507781039688	1.1351097960351033	0.3617701889102555	0.5125146553459652	1.581425175487126	0.3537437556659528	0.2696550807714077	1.5825482583864279	0.41870474638873884	0.3462206425398821	1.6241813910780973	0.35447336916030925	0.5264415094796451	1.6263882348598004	0.15990948560988769	0.43901042343027363	0.6631293912620221	0.18693199660418888	0.4472862144837064	1.1233516573378561	0.19901162130168312	0.4545827041367184	1.5420920126093416	0.18644425979811513	0.2875746844995192	1.6161241115108878	0.14022207298264763	0.3030367798007108	1.5844794421141652	0.21165838451757446	0.5276463002612825	1.6384337418311596	0.20450611117621714	0.35160760099288957	0.2120032887787342	0.18087558584475316	0.22712968060589286	-0.059788133221093005	0.1738752207992419	0.1831134262084375	0.1006526165824271	0.38288533649425	0.3221002018515322	0.23579681020705306	0.4643049707532075	0.3821013149798989	0.5345299784951449	0.4509177118008087	0.3403973201776811	0.7901946997908909	0.4098590852940214	0.31839662356383414	0.8902224207331975	0.4209323437884872	0.31962643227622156	0.9010466815833316	0.4676283815865906	0.35868331787859253	0.9129347674116682	0.0486676524319606	0.39675567567904585	0.2532368860772997	0.03200082951659189	0.4148585215517638	0.5661365878234368	0.05095933801164649	0.3922327531343476	0.8143500594861621	0.12019100124843102	0.3218864863862257	0.8765755527933874	0.11091797900027414	0.309599560235403	0.9207601837812177	0.0468618085079381	0.39937395620459465	0.9603371226691946
153	2.55	0.36980536717923274	0.43131307204684405	0.6525005326079024	0.3816977280345569	0.43382391442046153	1.1353777983500706	0.36181222145959474	0.5123199227276225	1.5817669245447719	0.35372491473814505	0.2696582157921147	1.5825683896678793	0.41763598412972164	0.34318743586914735	1.6221740984037227	0.3547551063071753	0.5268800620622868	1.6277680577965004	0.15981133355692997	0.4388667145884491	0.663304810506328	0.18581300849861393	0.4469101363754803	1.1227229498292026	0.19944072923413894	0.4546422052761492	1.542887626111272	0.1863736569511156	0.2875733596479121	1.616146839832914	0.1401308362609092	0.3032787412055315	1.583701838311876	0.21169289264359578	0.5276811188575466	1.638385439824289	0.20406276861391445	0.3518543849489356	0.2120133589943641	0.18021371223185612	0.2260977278457907	-0.05983140605039074	0.17353722195598756	0.1829580596410098	0.10061515216560284	0.38196105481794385	0.3255257100198116	0.23586274043066957	0.46361273119695756	0.38574452526495256	0.5365706608830848	0.4508667774731424	0.34084363895684855	0.7902332903085134	0.40963800026336844	0.3130038483734018	0.8869579650207682	0.4196783226955912	0.31664521691523406	0.8988598823567406	0.46750179943710013	0.3589838530989506	0.9130170034133526	0.0486629325217087	0.3967229852453835	0.2532758227553979	0.03184434556314055	0.4148720868497868	0.5659722844758562	0.050967756505846	0.3925044862905181	0.8142910196164738	0.12048857307163129	0.3225249801015616	0.8790625480320107	0.11090191342676942	0.31419586520293713	0.9246858406286347	0.04753429847949851	0.40003605990514884	0.9618581493898238
154	2.566666666666667	0.36879089178913965	0.43092952987526867	0.6540669247842781	0.381796100185227	0.43348642617801814	1.1359862243117669	0.3619206835127624	0.5118709430986838	1.5826056999027949	0.353717079277163	0.26963161919017153	1.582549133704769	0.41621573592450606	0.3391573312708597	1.6194966807805822	0.3548685666076479	0.5265964740236329	1.628926674485751	0.15964434714318304	0.43789730749843214	0.6641664100660936	0.18412580415273172	0.4464539540196869	1.122503811419618	0.19977467001180121	0.4546329929300408	1.5444889295731599	0.18625723651794	0.28759533110700913	1.6161435872021155	0.14017137751774789	0.3037984813210254	1.58077490805432	0.2117099707136808	0.5277129344879026	1.6383287238566804	0.20284648849515918	0.35195912003307894	0.21213076671988673	0.17953344128127632	0.22454020726016205	-0.05991532725138598	0.17344630888958712	0.18291960545085026	0.1002104643763013	0.38067061619656367	0.32702072432461105	0.23573404948433457	0.46323687279507314	0.38707470287274814	0.5369749895191116	0.45119437737750495	0.3423670317263916	0.7903889347678883	0.4094212239720477	0.3120838435496285	0.8853688734011878	0.41923463027131974	0.3156543015868337	0.8980406547965825	0.46841942724001784	0.35935843413616037	0.9131230649551885	0.04867040198397643	0.3966436898889709	0.25327140933351733	0.03165551529556717	0.4148701999347032	0.5662102200868583	0.050880011466758426	0.3925493246109585	0.8133803572636985	0.12068553822463793	0.32297903712832965	0.8799654791078367	0.11074155127657564	0.3175118929045541	0.9268866494691868	0.048606793985400985	0.4005787784169751	0.9621289930938399
155	2.583333333333333	0.3673426636012572	0.4303935047005529	0.6562153958521681	0.3820048798863584	0.4334586117533628	1.1370040486009476	0.362060901219062	0.5112979100774281	1.583724820603304	0.3537234250232027	0.2695740024227249	1.5824741766403023	0.41511809111528913	0.336038574655234	1.6174138485700749	0.35488950029798655	0.525870733454755	1.629965209735394	0.1595471636817443	0.4366423361415608	0.666234120578446	0.18267287095280865	0.44597661654694526	1.122409729869653	0.1998071445571148	0.45446763550443015	1.5458352997864513	0.18625153144272077	0.2876919113066154	1.6161365621984427	0.14023194378894607	0.30448360673219965	1.5776809760277677	0.21171329088174926	0.5277738620747329	1.6383088867828457	0.20118447114958307	0.3510547134749326	0.2123420225272274	0.17915353750429902	0.223553064108916	-0.05996602226700459	0.17303264872392424	0.1827519288304836	0.09929368988314803	0.3795361215203938	0.32718728639602157	0.23472809728530927	0.4630646441974856	0.38678695272131175	0.5360459502735309	0.4522476053704787	0.3457523326626756	0.7907450668214986	0.40932803499722453	0.31703269160341385	0.8866151945368215	0.4196307235396372	0.3168784353949162	0.8984914162916138	0.47040455761811956	0.3598951335895525	0.9133145501004263	0.04870626109160506	0.39652567644418174	0.2531673038096011	0.03156644463973796	0.41486906827424863	0.5671507539559857	0.05084605483949214	0.3925073661463335	0.8115610983389057	0.12056837724218898	0.3232916005776512	0.8780802123502193	0.11047565979921724	0.318723741532163	0.9264326768147626	0.04982785169616393	0.40095208401059984	0.9609754762308542
